<svg width="13" height="24" viewBox="0 0 13 24" fill="none" xmlns="http://www.w3.org/2000/svg">
<path d="M7.94062 17.7245C7.94062 19.6088 7.93594 21.4885 7.94531 23.3729C7.94531 23.5791 7.88906 23.6354 7.68281 23.6307C6.07969 23.6213 4.48125 23.6213 2.87812 23.6307C2.65781 23.6307 2.5875 23.5791 2.5875 23.3495C2.59687 19.6135 2.59219 15.8823 2.59219 12.1463C2.59219 11.7713 2.63437 11.8182 2.25 11.8135C1.57031 11.8135 0.890625 11.8088 0.210938 11.8182C0.046875 11.8182 0 11.7667 0 11.6026C0.0046875 10.4167 0.0046875 9.22603 0 8.04009C0 7.87603 0.046875 7.82447 0.210938 7.82915C0.923437 7.83853 1.63125 7.82447 2.34375 7.83853C2.53594 7.84322 2.59687 7.79165 2.59687 7.59009C2.5875 6.59165 2.59687 5.58853 2.59219 4.59009C2.5875 3.7604 2.71406 2.95884 3.13125 2.22759C3.58125 1.43072 4.25625 0.88228 5.09062 0.52603C5.79375 0.226031 6.53438 0.0854055 7.29375 0.0432181C8.79844 -0.0411569 10.3078 0.0291556 11.8125 0.00103057C11.9812 -0.00365693 12.0234 0.0572805 12.0234 0.216656C12.0187 1.44947 12.0187 2.68697 12.0234 3.91978C12.0234 4.10728 11.9531 4.1354 11.7891 4.1354C10.9219 4.13072 10.0547 4.13072 9.1875 4.13072C8.46563 4.13072 7.94531 4.65103 7.94531 5.36353C7.94531 6.09947 7.95469 6.83072 7.94062 7.56665C7.93594 7.77759 8.00625 7.82915 8.20781 7.82915C9.39375 7.81978 10.5844 7.82915 11.7703 7.81978C11.9672 7.81978 12.0328 7.87603 12.0094 8.0729C11.9391 8.67759 11.8781 9.28228 11.8125 9.88697C11.7516 10.4682 11.6484 11.0448 11.5547 11.6213C11.5266 11.7854 11.475 11.8229 11.325 11.8229C10.3078 11.8182 9.29531 11.8182 8.27813 11.8229C7.87969 11.8229 7.93594 11.7713 7.93594 12.1745C7.94062 14.0213 7.94062 15.8729 7.94062 17.7245Z" fill="white"/>
</svg>
