<svg width="15" height="27" viewBox="0 0 15 27" fill="none" xmlns="http://www.w3.org/2000/svg">
<path d="M14.8839 8.79567C14.8839 3.45305 11.9643 0 7.44194 0C2.91956 0 0 3.45305 0 8.79567C0 13.249 5.86177 22.1889 6.53164 23.1892L7.3503 24.4245C3.92114 24.435 1.15575 25.0066 1.15575 25.7116C1.15575 26.4229 3.97181 26.9996 7.44553 26.9996C10.9193 26.9996 13.7353 26.4229 13.7353 25.7116C13.7353 25.0062 10.9667 24.4342 7.5343 24.4245L8.35799 23.1892C9.02175 22.1826 14.8839 13.2427 14.8839 8.79567ZM5.03197 8.78977C5.03197 7.26933 6.11081 6.03661 7.44194 6.03661C8.77306 6.03661 9.85191 7.26933 9.85191 8.78977C9.85191 10.3102 8.77306 11.5429 7.44194 11.5429C6.11081 11.5429 5.03197 10.3102 5.03197 8.78977Z" fill="#F44C57"/>
</svg>
