<svg width="23" height="27" viewBox="0 0 23 27" fill="none" xmlns="http://www.w3.org/2000/svg">
<path d="M22.8965 21.5218L22.782 21.1168C22.5109 20.1706 21.6222 19.1837 20.8058 18.9237L17.7841 17.9545C16.9646 17.6928 15.7957 18.0447 15.1962 18.7486L14.1026 20.0327C10.1281 18.7717 7.01157 15.1123 5.93907 10.4468L7.03273 9.16267C7.63227 8.45874 7.93199 7.0881 7.70905 6.12598L6.88508 2.57635C6.66215 1.61598 5.8201 0.572526 5.01575 0.257685L4.67082 0.121516C3.86492 -0.193326 2.71559 0.125081 2.1161 0.828961L0.480208 2.75146C0.187958 3.09279 0.00117382 4.06906 0.00117382 4.07263C-0.0560423 10.1708 1.9805 16.0461 5.65438 20.3598C9.31925 24.6628 14.3045 27.0505 19.4832 26.9992C19.5103 26.9992 20.3659 26.7834 20.6581 26.442L22.294 24.5213C22.8935 23.8174 23.1646 22.468 22.8965 21.5218Z" fill="#F44C57"/>
</svg>
