<svg width="24" height="24" viewBox="0 0 24 24" fill="none" xmlns="http://www.w3.org/2000/svg">
<path fill-rule="evenodd" clip-rule="evenodd" d="M24 4.36762C23.1182 4.76925 22.1687 5.04075 21.1727 5.16206C22.1897 4.53806 22.9703 3.54844 23.3379 2.36981C22.3856 2.94769 21.3334 3.36806 20.2091 3.59344C19.3133 2.61262 18.0326 2.00006 16.6155 2.00006C13.8981 2.00006 11.6934 4.26075 11.6934 7.04887C11.6934 7.44469 11.7356 7.82887 11.8202 8.19881C7.7282 7.98769 4.10082 5.97975 1.67063 2.92162C1.2467 3.66994 1.00426 4.53806 1.00426 5.46262C1.00426 7.2135 1.87351 8.75906 3.19482 9.66487C2.38913 9.64031 1.62826 9.41062 0.963384 9.03506V9.09712C0.963384 11.5442 2.66082 13.5853 4.91476 14.0477C4.50207 14.1662 4.0667 14.2254 3.61726 14.2254C3.30038 14.2254 2.99045 14.1951 2.69026 14.1358C3.31707 16.1409 5.13432 17.6014 7.28963 17.6404C5.60476 18.9954 3.48057 19.8028 1.17451 19.8028C0.777196 19.8028 0.384196 19.7797 -0.000366211 19.7334C2.17895 21.1635 4.76813 21.9999 7.54745 21.9999C16.6054 21.9999 21.5569 14.3076 21.5569 7.63519C21.5569 7.41562 21.5526 7.19606 21.5441 6.98081C22.5068 6.26869 23.3421 5.38031 24 4.36762Z" fill="white"/>
</svg>
